<?xml version="1.0" encoding="utf-8" standalone="no"?>
<!DOCTYPE svg PUBLIC "-//W3C//DTD SVG 1.1//EN"
  "http://www.w3.org/Graphics/SVG/1.1/DTD/svg11.dtd">
<svg xmlns:xlink="http://www.w3.org/1999/xlink" width="721.752969pt" height="437.569531pt" viewBox="0 0 721.752969 437.569531" xmlns="http://www.w3.org/2000/svg" version="1.1">
 <metadata>
  <rdf:RDF xmlns:dc="http://purl.org/dc/elements/1.1/" xmlns:cc="http://creativecommons.org/ns#" xmlns:rdf="http://www.w3.org/1999/02/22-rdf-syntax-ns#">
   <cc:Work>
    <dc:type rdf:resource="http://purl.org/dc/dcmitype/StillImage"/>
    <dc:date>2026-04-13T10:22:32.990943</dc:date>
    <dc:format>image/svg+xml</dc:format>
    <dc:creator>
     <cc:Agent>
      <dc:title>Matplotlib v3.10.8, https://matplotlib.org/</dc:title>
     </cc:Agent>
    </dc:creator>
   </cc:Work>
  </rdf:RDF>
 </metadata>
 <defs>
  <style type="text/css">*{stroke-linejoin: round; stroke-linecap: butt}</style>
 </defs>
 <g id="figure_1">
  <g id="patch_1">
   <path d="M 0 437.569531 
L 721.752969 437.569531 
L 721.752969 -0 
L 0 -0 
z
" style="fill: #fdf8f2"/>
  </g>
  <g id="axes_1">
   <g id="patch_2">
    <path d="M 82.210938 371.453125 
L 534.989062 371.453125 
L 534.989062 48.853125 
L 82.210938 48.853125 
L 82.210938 371.453125 
z
" style="fill: none"/>
   </g>
   <g id="FillBetweenPolyCollection_1">
    <defs>
     <path id="m084e07bed9" d="M 98.980498 -359.752205 
L 98.980498 -324.136128 
L 203.790249 -345.267872 
L 308.6 -336.569303 
L 413.409751 -180.117225 
L 518.219502 -161.159322 
L 518.219502 -183.293578 
L 518.219502 -183.293578 
L 413.409751 -198.098719 
L 308.6 -353.52672 
L 203.790249 -374.490758 
L 98.980498 -359.752205 
z
"/>
    </defs>
    <g clip-path="url(#p314b5dcfe6)">
     <use xlink:href="#m084e07bed9" x="0" y="437.569531" style="fill: #5088c5; fill-opacity: 0.2"/>
    </g>
   </g>
   <g id="FillBetweenPolyCollection_2">
    <defs>
     <path id="me9db16cb06" d="M 98.980498 -331.113645 
L 98.980498 -308.347181 
L 203.790249 -327.320687 
L 308.6 -349.441629 
L 413.409751 -342.939124 
L 518.219502 -348.639871 
L 518.219502 -372.438912 
L 518.219502 -372.438912 
L 413.409751 -362.443366 
L 308.6 -370.142762 
L 203.790249 -355.350921 
L 98.980498 -331.113645 
z
"/>
    </defs>
    <g clip-path="url(#p314b5dcfe6)">
     <use xlink:href="#me9db16cb06" x="0" y="437.569531" style="fill: #f28360; fill-opacity: 0.2"/>
    </g>
   </g>
   <g id="FillBetweenPolyCollection_3">
    <defs>
     <path id="m53139b5e0a" d="M 98.980498 -376.768258 
L 98.980498 -352.655619 
L 203.790249 -341.326604 
L 308.6 -219.236647 
L 413.409751 -178.888151 
L 518.219502 -166.77416 
L 518.219502 -232.205313 
L 518.219502 -232.205313 
L 413.409751 -228.157503 
L 308.6 -252.300749 
L 203.790249 -358.081963 
L 98.980498 -376.768258 
z
"/>
    </defs>
    <g clip-path="url(#p314b5dcfe6)">
     <use xlink:href="#m53139b5e0a" x="0" y="437.569531" style="fill: #7a77ab; fill-opacity: 0.2"/>
    </g>
   </g>
   <g id="FillBetweenPolyCollection_4">
    <defs>
     <path id="me1f8ec83c8" d="M 98.980498 -323.185518 
L 98.980498 -297.981754 
L 203.790249 -341.721768 
L 308.6 -334.366469 
L 413.409751 -334.104529 
L 518.219502 -324.478252 
L 518.219502 -348.862512 
L 518.219502 -348.862512 
L 413.409751 -355.358264 
L 308.6 -354.604289 
L 203.790249 -361.023899 
L 98.980498 -323.185518 
z
"/>
    </defs>
    <g clip-path="url(#p314b5dcfe6)">
     <use xlink:href="#me1f8ec83c8" x="0" y="437.569531" style="fill: #f898ae; fill-opacity: 0.2"/>
    </g>
   </g>
   <g id="matplotlib.axis_1">
    <g id="xtick_1">
     <g id="line2d_1">
      <defs>
       <path id="m8958c60b79" d="M 0 0 
L 0 5 
" style="stroke: #000000; stroke-width: 0.75"/>
      </defs>
      <g>
       <use xlink:href="#m8958c60b79" x="98.980498" y="371.453125" style="stroke: #000000; stroke-width: 0.75"/>
      </g>
     </g>
     <g id="text_1">
      <text style="font-size: 15px; font-family: 'Atkinson Hyperlegible Next', sans-serif; text-anchor: middle" x="98.980498" y="392.072656" transform="rotate(-0 98.980498 392.072656)">1.0</text>
     </g>
    </g>
    <g id="xtick_2">
     <g id="line2d_2">
      <g>
       <use xlink:href="#m8958c60b79" x="151.385373" y="371.453125" style="stroke: #000000; stroke-width: 0.75"/>
      </g>
     </g>
     <g id="text_2">
      <text style="font-size: 15px; font-family: 'Atkinson Hyperlegible Next', sans-serif; text-anchor: middle" x="151.385373" y="392.072656" transform="rotate(-0 151.385373 392.072656)">1.5</text>
     </g>
    </g>
    <g id="xtick_3">
     <g id="line2d_3">
      <g>
       <use xlink:href="#m8958c60b79" x="203.790249" y="371.453125" style="stroke: #000000; stroke-width: 0.75"/>
      </g>
     </g>
     <g id="text_3">
      <text style="font-size: 15px; font-family: 'Atkinson Hyperlegible Next', sans-serif; text-anchor: middle" x="203.790249" y="392.072656" transform="rotate(-0 203.790249 392.072656)">2.0</text>
     </g>
    </g>
    <g id="xtick_4">
     <g id="line2d_4">
      <g>
       <use xlink:href="#m8958c60b79" x="256.195124" y="371.453125" style="stroke: #000000; stroke-width: 0.75"/>
      </g>
     </g>
     <g id="text_4">
      <text style="font-size: 15px; font-family: 'Atkinson Hyperlegible Next', sans-serif; text-anchor: middle" x="256.195124" y="392.072656" transform="rotate(-0 256.195124 392.072656)">2.5</text>
     </g>
    </g>
    <g id="xtick_5">
     <g id="line2d_5">
      <g>
       <use xlink:href="#m8958c60b79" x="308.6" y="371.453125" style="stroke: #000000; stroke-width: 0.75"/>
      </g>
     </g>
     <g id="text_5">
      <text style="font-size: 15px; font-family: 'Atkinson Hyperlegible Next', sans-serif; text-anchor: middle" x="308.6" y="392.072656" transform="rotate(-0 308.6 392.072656)">3.0</text>
     </g>
    </g>
    <g id="xtick_6">
     <g id="line2d_6">
      <g>
       <use xlink:href="#m8958c60b79" x="361.004876" y="371.453125" style="stroke: #000000; stroke-width: 0.75"/>
      </g>
     </g>
     <g id="text_6">
      <text style="font-size: 15px; font-family: 'Atkinson Hyperlegible Next', sans-serif; text-anchor: middle" x="361.004876" y="392.072656" transform="rotate(-0 361.004876 392.072656)">3.5</text>
     </g>
    </g>
    <g id="xtick_7">
     <g id="line2d_7">
      <g>
       <use xlink:href="#m8958c60b79" x="413.409751" y="371.453125" style="stroke: #000000; stroke-width: 0.75"/>
      </g>
     </g>
     <g id="text_7">
      <text style="font-size: 15px; font-family: 'Atkinson Hyperlegible Next', sans-serif; text-anchor: middle" x="413.409751" y="392.072656" transform="rotate(-0 413.409751 392.072656)">4.0</text>
     </g>
    </g>
    <g id="xtick_8">
     <g id="line2d_8">
      <g>
       <use xlink:href="#m8958c60b79" x="465.814627" y="371.453125" style="stroke: #000000; stroke-width: 0.75"/>
      </g>
     </g>
     <g id="text_8">
      <text style="font-size: 15px; font-family: 'Atkinson Hyperlegible Next', sans-serif; text-anchor: middle" x="465.814627" y="392.072656" transform="rotate(-0 465.814627 392.072656)">4.5</text>
     </g>
    </g>
    <g id="xtick_9">
     <g id="line2d_9">
      <g>
       <use xlink:href="#m8958c60b79" x="518.219502" y="371.453125" style="stroke: #000000; stroke-width: 0.75"/>
      </g>
     </g>
     <g id="text_9">
      <text style="font-size: 15px; font-family: 'Atkinson Hyperlegible Next', sans-serif; text-anchor: middle" x="518.219502" y="392.072656" transform="rotate(-0 518.219502 392.072656)">5.0</text>
     </g>
    </g>
    <g id="text_10">
     <text style="font-weight: 500; font-size: 15px; font-family: 'Atkinson Hyperlegible Next', sans-serif; text-anchor: middle" x="308.6" y="415.139063" transform="rotate(-0 308.6 415.139063)">Volume (mL)</text>
    </g>
   </g>
   <g id="matplotlib.axis_2">
    <g id="ytick_1">
     <g id="line2d_10">
      <defs>
       <path id="m9f12e7d4d1" d="M 0 0 
L -5 0 
" style="stroke: #000000; stroke-width: 0.75"/>
      </defs>
      <g>
       <use xlink:href="#m9f12e7d4d1" x="82.210938" y="364.271708" style="stroke: #000000; stroke-width: 0.75"/>
      </g>
     </g>
     <g id="text_11">
      <text style="font-size: 15px; font-family: 'Atkinson Hyperlegible Next', sans-serif; text-anchor: end" x="72.210938" y="369.581473" transform="rotate(-0 72.210938 369.581473)">9.0</text>
     </g>
    </g>
    <g id="ytick_2">
     <g id="line2d_11">
      <g>
       <use xlink:href="#m9f12e7d4d1" x="82.210938" y="318.529569" style="stroke: #000000; stroke-width: 0.75"/>
      </g>
     </g>
     <g id="text_12">
      <text style="font-size: 15px; font-family: 'Atkinson Hyperlegible Next', sans-serif; text-anchor: end" x="72.210938" y="323.839334" transform="rotate(-0 72.210938 323.839334)">9.5</text>
     </g>
    </g>
    <g id="ytick_3">
     <g id="line2d_12">
      <g>
       <use xlink:href="#m9f12e7d4d1" x="82.210938" y="272.78743" style="stroke: #000000; stroke-width: 0.75"/>
      </g>
     </g>
     <g id="text_13">
      <text style="font-size: 15px; font-family: 'Atkinson Hyperlegible Next', sans-serif; text-anchor: end" x="72.210938" y="278.097195" transform="rotate(-0 72.210938 278.097195)">10.0</text>
     </g>
    </g>
    <g id="ytick_4">
     <g id="line2d_13">
      <g>
       <use xlink:href="#m9f12e7d4d1" x="82.210938" y="227.045291" style="stroke: #000000; stroke-width: 0.75"/>
      </g>
     </g>
     <g id="text_14">
      <text style="font-size: 15px; font-family: 'Atkinson Hyperlegible Next', sans-serif; text-anchor: end" x="72.210938" y="232.355056" transform="rotate(-0 72.210938 232.355056)">10.5</text>
     </g>
    </g>
    <g id="ytick_5">
     <g id="line2d_14">
      <g>
       <use xlink:href="#m9f12e7d4d1" x="82.210938" y="181.303152" style="stroke: #000000; stroke-width: 0.75"/>
      </g>
     </g>
     <g id="text_15">
      <text style="font-size: 15px; font-family: 'Atkinson Hyperlegible Next', sans-serif; text-anchor: end" x="72.210938" y="186.612918" transform="rotate(-0 72.210938 186.612918)">11.0</text>
     </g>
    </g>
    <g id="ytick_6">
     <g id="line2d_15">
      <g>
       <use xlink:href="#m9f12e7d4d1" x="82.210938" y="135.561013" style="stroke: #000000; stroke-width: 0.75"/>
      </g>
     </g>
     <g id="text_16">
      <text style="font-size: 15px; font-family: 'Atkinson Hyperlegible Next', sans-serif; text-anchor: end" x="72.210938" y="140.870779" transform="rotate(-0 72.210938 140.870779)">11.5</text>
     </g>
    </g>
    <g id="ytick_7">
     <g id="line2d_16">
      <g>
       <use xlink:href="#m9f12e7d4d1" x="82.210938" y="89.818874" style="stroke: #000000; stroke-width: 0.75"/>
      </g>
     </g>
     <g id="text_17">
      <text style="font-size: 15px; font-family: 'Atkinson Hyperlegible Next', sans-serif; text-anchor: end" x="72.210938" y="95.12864" transform="rotate(-0 72.210938 95.12864)">12.0</text>
     </g>
    </g>
    <g id="text_18">
     <text style="font-weight: 500; font-size: 15px; font-family: 'Atkinson Hyperlegible Next', sans-serif; text-anchor: middle" x="30.635938" y="210.153125" transform="rotate(-90 30.635938 210.153125)">Length (μm)</text>
    </g>
   </g>
   <g id="line2d_17">
    <path d="M 98.980498 95.625364 
L 203.790249 77.690216 
L 308.6 92.52152 
L 413.409751 248.461559 
L 518.219502 265.343081 
" clip-path="url(#p314b5dcfe6)" style="fill: none; stroke: #5088c5; stroke-width: 2; stroke-linecap: round"/>
    <defs>
     <path id="mdd80feb513" d="M 0 3 
C 0.795609 3 1.55874 2.683901 2.12132 2.12132 
C 2.683901 1.55874 3 0.795609 3 0 
C 3 -0.795609 2.683901 -1.55874 2.12132 -2.12132 
C 1.55874 -2.683901 0.795609 -3 0 -3 
C -0.795609 -3 -1.55874 -2.683901 -2.12132 -2.12132 
C -2.683901 -1.55874 -3 -0.795609 -3 0 
C -3 0.795609 -2.683901 1.55874 -2.12132 2.12132 
C -1.55874 2.683901 -0.795609 3 0 3 
z
"/>
    </defs>
    <g clip-path="url(#p314b5dcfe6)">
     <use xlink:href="#mdd80feb513" x="98.980498" y="95.625364" style="fill: #5088c5"/>
     <use xlink:href="#mdd80feb513" x="203.790249" y="77.690216" style="fill: #5088c5"/>
     <use xlink:href="#mdd80feb513" x="308.6" y="92.52152" style="fill: #5088c5"/>
     <use xlink:href="#mdd80feb513" x="413.409751" y="248.461559" style="fill: #5088c5"/>
     <use xlink:href="#mdd80feb513" x="518.219502" y="265.343081" style="fill: #5088c5"/>
    </g>
   </g>
   <g id="line2d_18">
    <path d="M 98.980498 117.839119 
L 203.790249 96.233727 
L 308.6 77.777335 
L 413.409751 84.878286 
L 518.219502 77.03014 
" clip-path="url(#p314b5dcfe6)" style="fill: none; stroke: #f28360; stroke-width: 2; stroke-linecap: round"/>
    <defs>
     <path id="m2331c53ee1" d="M 0 3 
C 0.795609 3 1.55874 2.683901 2.12132 2.12132 
C 2.683901 1.55874 3 0.795609 3 0 
C 3 -0.795609 2.683901 -1.55874 2.12132 -2.12132 
C 1.55874 -2.683901 0.795609 -3 0 -3 
C -0.795609 -3 -1.55874 -2.683901 -2.12132 -2.12132 
C -2.683901 -1.55874 -3 -0.795609 -3 0 
C -3 0.795609 -2.683901 1.55874 -2.12132 2.12132 
C -1.55874 2.683901 -0.795609 3 0 3 
z
"/>
    </defs>
    <g clip-path="url(#p314b5dcfe6)">
     <use xlink:href="#m2331c53ee1" x="98.980498" y="117.839119" style="fill: #f28360"/>
     <use xlink:href="#m2331c53ee1" x="203.790249" y="96.233727" style="fill: #f28360"/>
     <use xlink:href="#m2331c53ee1" x="308.6" y="77.777335" style="fill: #f28360"/>
     <use xlink:href="#m2331c53ee1" x="413.409751" y="84.878286" style="fill: #f28360"/>
     <use xlink:href="#m2331c53ee1" x="518.219502" y="77.03014" style="fill: #f28360"/>
    </g>
   </g>
   <g id="LineCollection_1">
    <path d="M 98.980498 359.504977 
L 98.980498 328.76021 
" clip-path="url(#p314b5dcfe6)" style="fill: none; stroke: #f7b846; stroke-width: 2"/>
   </g>
   <g id="line2d_19">
    <defs>
     <path id="m4554a457f9" d="M 4 0 
L -4 -0 
"/>
    </defs>
    <g clip-path="url(#p314b5dcfe6)">
     <use xlink:href="#m4554a457f9" x="98.980498" y="359.504977" style="fill: #f7b846"/>
    </g>
   </g>
   <g id="line2d_20">
    <g clip-path="url(#p314b5dcfe6)">
     <use xlink:href="#m4554a457f9" x="98.980498" y="328.76021" style="fill: #f7b846"/>
    </g>
   </g>
   <g id="LineCollection_2">
    <path d="M 98.980498 184.283063 
L 98.980498 157.316075 
" clip-path="url(#p314b5dcfe6)" style="fill: none; stroke: #97cd78; stroke-width: 2"/>
   </g>
   <g id="line2d_21">
    <defs>
     <path id="mb4d10582e9" d="M 4 0 
L -4 -0 
"/>
    </defs>
    <g clip-path="url(#p314b5dcfe6)">
     <use xlink:href="#mb4d10582e9" x="98.980498" y="184.283063" style="fill: #97cd78"/>
    </g>
   </g>
   <g id="line2d_22">
    <g clip-path="url(#p314b5dcfe6)">
     <use xlink:href="#mb4d10582e9" x="98.980498" y="157.316075" style="fill: #97cd78"/>
    </g>
   </g>
   <g id="line2d_23">
    <path d="M 98.980498 72.857593 
L 203.790249 87.865248 
L 308.6 201.800833 
L 413.409751 234.046704 
L 518.219502 238.079795 
" clip-path="url(#p314b5dcfe6)" style="fill: none; stroke: #7a77ab; stroke-width: 2; stroke-linecap: round"/>
    <defs>
     <path id="m1c69719a9a" d="M 0 3 
C 0.795609 3 1.55874 2.683901 2.12132 2.12132 
C 2.683901 1.55874 3 0.795609 3 0 
C 3 -0.795609 2.683901 -1.55874 2.12132 -2.12132 
C 1.55874 -2.683901 0.795609 -3 0 -3 
C -0.795609 -3 -1.55874 -2.683901 -2.12132 -2.12132 
C -2.683901 -1.55874 -3 -0.795609 -3 0 
C -3 0.795609 -2.683901 1.55874 -2.12132 2.12132 
C -1.55874 2.683901 -0.795609 3 0 3 
z
"/>
    </defs>
    <g clip-path="url(#p314b5dcfe6)">
     <use xlink:href="#m1c69719a9a" x="98.980498" y="72.857593" style="fill: #7a77ab"/>
     <use xlink:href="#m1c69719a9a" x="203.790249" y="87.865248" style="fill: #7a77ab"/>
     <use xlink:href="#m1c69719a9a" x="308.6" y="201.800833" style="fill: #7a77ab"/>
     <use xlink:href="#m1c69719a9a" x="413.409751" y="234.046704" style="fill: #7a77ab"/>
     <use xlink:href="#m1c69719a9a" x="518.219502" y="238.079795" style="fill: #7a77ab"/>
    </g>
   </g>
   <g id="line2d_24">
    <path d="M 98.980498 126.985895 
L 203.790249 86.196698 
L 308.6 93.084152 
L 413.409751 92.838135 
L 518.219502 100.899149 
" clip-path="url(#p314b5dcfe6)" style="fill: none; stroke: #f898ae; stroke-width: 2; stroke-linecap: round"/>
    <defs>
     <path id="m4e5d6341d4" d="M 0 3 
C 0.795609 3 1.55874 2.683901 2.12132 2.12132 
C 2.683901 1.55874 3 0.795609 3 0 
C 3 -0.795609 2.683901 -1.55874 2.12132 -2.12132 
C 1.55874 -2.683901 0.795609 -3 0 -3 
C -0.795609 -3 -1.55874 -2.683901 -2.12132 -2.12132 
C -2.683901 -1.55874 -3 -0.795609 -3 0 
C -3 0.795609 -2.683901 1.55874 -2.12132 2.12132 
C -1.55874 2.683901 -0.795609 3 0 3 
z
"/>
    </defs>
    <g clip-path="url(#p314b5dcfe6)">
     <use xlink:href="#m4e5d6341d4" x="98.980498" y="126.985895" style="fill: #f898ae"/>
     <use xlink:href="#m4e5d6341d4" x="203.790249" y="86.196698" style="fill: #f898ae"/>
     <use xlink:href="#m4e5d6341d4" x="308.6" y="93.084152" style="fill: #f898ae"/>
     <use xlink:href="#m4e5d6341d4" x="413.409751" y="92.838135" style="fill: #f898ae"/>
     <use xlink:href="#m4e5d6341d4" x="518.219502" y="100.899149" style="fill: #f898ae"/>
    </g>
   </g>
   <g id="line2d_25">
    <path d="M 98.980498 344.132593 
" clip-path="url(#p314b5dcfe6)" style="fill: none; stroke: #f7b846; stroke-width: 2; stroke-linecap: round"/>
    <defs>
     <path id="m1b29f8ef24" d="M 0 3 
C 0.795609 3 1.55874 2.683901 2.12132 2.12132 
C 2.683901 1.55874 3 0.795609 3 0 
C 3 -0.795609 2.683901 -1.55874 2.12132 -2.12132 
C 1.55874 -2.683901 0.795609 -3 0 -3 
C -0.795609 -3 -1.55874 -2.683901 -2.12132 -2.12132 
C -2.683901 -1.55874 -3 -0.795609 -3 0 
C -3 0.795609 -2.683901 1.55874 -2.12132 2.12132 
C -1.55874 2.683901 -0.795609 3 0 3 
z
"/>
    </defs>
    <g clip-path="url(#p314b5dcfe6)">
     <use xlink:href="#m1b29f8ef24" x="98.980498" y="344.132593" style="fill: #f7b846"/>
    </g>
   </g>
   <g id="line2d_26">
    <path d="M 98.980498 170.799569 
" clip-path="url(#p314b5dcfe6)" style="fill: none; stroke: #97cd78; stroke-width: 2; stroke-linecap: round"/>
    <defs>
     <path id="m4562edd101" d="M 0 3 
C 0.795609 3 1.55874 2.683901 2.12132 2.12132 
C 2.683901 1.55874 3 0.795609 3 0 
C 3 -0.795609 2.683901 -1.55874 2.12132 -2.12132 
C 1.55874 -2.683901 0.795609 -3 0 -3 
C -0.795609 -3 -1.55874 -2.683901 -2.12132 -2.12132 
C -2.683901 -1.55874 -3 -0.795609 -3 0 
C -3 0.795609 -2.683901 1.55874 -2.12132 2.12132 
C -1.55874 2.683901 -0.795609 3 0 3 
z
"/>
    </defs>
    <g clip-path="url(#p314b5dcfe6)">
     <use xlink:href="#m4562edd101" x="98.980498" y="170.799569" style="fill: #97cd78"/>
    </g>
   </g>
   <g id="patch_3">
    <path d="M 82.210938 371.453125 
L 82.210938 48.853125 
" style="fill: none; stroke: #000000; stroke-width: 0.75; stroke-linejoin: miter; stroke-linecap: square"/>
   </g>
   <g id="patch_4">
    <path d="M 82.210937 371.453125 
L 534.989062 371.453125 
" style="fill: none; stroke: #000000; stroke-width: 0.75; stroke-linejoin: miter; stroke-linecap: square"/>
   </g>
   <g id="text_19">
    <text style="font-weight: 500; font-size: 18px; font-family: 'Atkinson Hyperlegible Next', sans-serif; text-anchor: middle" x="308.6" y="32.853125" transform="rotate(-0 308.6 32.853125)">Mean cell length vs. volume by experiment and bead presence</text>
   </g>
   <g id="legend_1">
    <g id="line2d_27">
     <path d="M 557.627969 48.853125 
L 701.752969 48.853125 
" style="fill: none; stroke: #bab0a8; stroke-width: 1.5; stroke-linecap: round"/>
    </g>
    <g id="line2d_28">
     <path d="M 557.627969 62.728125 
L 565.127969 62.728125 
L 572.627969 62.728125 
" style="fill: none; stroke: #5088c5; stroke-width: 2; stroke-linecap: round"/>
     <g>
      <use xlink:href="#mdd80feb513" x="565.127969" y="62.728125" style="fill: #5088c5"/>
     </g>
    </g>
    <g id="text_20">
     <text style="font-size: 15px; font-family: 'Atkinson Hyperlegible Next', sans-serif; text-anchor: start" x="578.627969" y="69.103125" transform="rotate(-0 578.627969 69.103125)">24-well, no bead</text>
    </g>
    <g id="line2d_29">
     <path d="M 557.627969 85.603125 
L 565.127969 85.603125 
L 572.627969 85.603125 
" style="fill: none; stroke: #f28360; stroke-width: 2; stroke-linecap: round"/>
     <g>
      <use xlink:href="#m2331c53ee1" x="565.127969" y="85.603125" style="fill: #f28360"/>
     </g>
    </g>
    <g id="text_21">
     <text style="font-size: 15px; font-family: 'Atkinson Hyperlegible Next', sans-serif; text-anchor: start" x="578.627969" y="91.978125" transform="rotate(-0 578.627969 91.978125)">24-well, bead</text>
    </g>
    <g id="line2d_30">
     <path d="M 557.627969 108.478125 
L 565.127969 108.478125 
L 572.627969 108.478125 
" style="fill: none; stroke: #7a77ab; stroke-width: 2; stroke-linecap: round"/>
     <g>
      <use xlink:href="#m1c69719a9a" x="565.127969" y="108.478125" style="fill: #7a77ab"/>
     </g>
    </g>
    <g id="text_22">
     <text style="font-size: 15px; font-family: 'Atkinson Hyperlegible Next', sans-serif; text-anchor: start" x="578.627969" y="114.853125" transform="rotate(-0 578.627969 114.853125)">Test tube, no bead</text>
    </g>
    <g id="line2d_31">
     <path d="M 557.627969 131.353125 
L 565.127969 131.353125 
L 572.627969 131.353125 
" style="fill: none; stroke: #f898ae; stroke-width: 2; stroke-linecap: round"/>
     <g>
      <use xlink:href="#m4e5d6341d4" x="565.127969" y="131.353125" style="fill: #f898ae"/>
     </g>
    </g>
    <g id="text_23">
     <text style="font-size: 15px; font-family: 'Atkinson Hyperlegible Next', sans-serif; text-anchor: start" x="578.627969" y="137.728125" transform="rotate(-0 578.627969 137.728125)">Test tube, bead</text>
    </g>
    <g id="LineCollection_3">
     <path d="M 565.127969 161.728125 
L 565.127969 146.728125 
" style="fill: none; stroke: #f7b846; stroke-width: 2"/>
    </g>
    <g id="line2d_32">
     <g>
      <use xlink:href="#m4554a457f9" x="565.127969" y="161.728125" style="fill: #f7b846"/>
     </g>
    </g>
    <g id="line2d_33">
     <g>
      <use xlink:href="#m4554a457f9" x="565.127969" y="146.728125" style="fill: #f7b846"/>
     </g>
    </g>
    <g id="line2d_34">
     <path d="M 557.627969 154.228125 
L 572.627969 154.228125 
" style="fill: none; stroke: #f7b846; stroke-width: 2; stroke-linecap: round"/>
    </g>
    <g id="line2d_35">
     <g>
      <use xlink:href="#m1b29f8ef24" x="565.127969" y="154.228125" style="fill: #f7b846"/>
     </g>
    </g>
    <g id="text_24">
     <text style="font-size: 15px; font-family: 'Atkinson Hyperlegible Next', sans-serif; text-anchor: start" x="578.627969" y="160.603125" transform="rotate(-0 578.627969 160.603125)">96-well, no bead</text>
    </g>
    <g id="LineCollection_4">
     <path d="M 565.127969 184.603125 
L 565.127969 169.603125 
" style="fill: none; stroke: #97cd78; stroke-width: 2"/>
    </g>
    <g id="line2d_36">
     <g>
      <use xlink:href="#mb4d10582e9" x="565.127969" y="184.603125" style="fill: #97cd78"/>
     </g>
    </g>
    <g id="line2d_37">
     <g>
      <use xlink:href="#mb4d10582e9" x="565.127969" y="169.603125" style="fill: #97cd78"/>
     </g>
    </g>
    <g id="line2d_38">
     <path d="M 557.627969 177.103125 
L 572.627969 177.103125 
" style="fill: none; stroke: #97cd78; stroke-width: 2; stroke-linecap: round"/>
    </g>
    <g id="line2d_39">
     <g>
      <use xlink:href="#m4562edd101" x="565.127969" y="177.103125" style="fill: #97cd78"/>
     </g>
    </g>
    <g id="text_25">
     <text style="font-size: 15px; font-family: 'Atkinson Hyperlegible Next', sans-serif; text-anchor: start" x="578.627969" y="183.478125" transform="rotate(-0 578.627969 183.478125)">96-well, bead</text>
    </g>
   </g>
  </g>
 </g>
 <defs>
  <clipPath id="p314b5dcfe6">
   <rect x="82.210938" y="48.853125" width="452.778125" height="322.6"/>
  </clipPath>
 </defs>
</svg>
