<?xml version="1.0" encoding="utf-8" standalone="no"?>
<!DOCTYPE svg PUBLIC "-//W3C//DTD SVG 1.1//EN"
  "http://www.w3.org/Graphics/SVG/1.1/DTD/svg11.dtd">
<svg xmlns:xlink="http://www.w3.org/1999/xlink" width="721.92875pt" height="437.569531pt" viewBox="0 0 721.92875 437.569531" xmlns="http://www.w3.org/2000/svg" version="1.1">
 <metadata>
  <rdf:RDF xmlns:dc="http://purl.org/dc/elements/1.1/" xmlns:cc="http://creativecommons.org/ns#" xmlns:rdf="http://www.w3.org/1999/02/22-rdf-syntax-ns#">
   <cc:Work>
    <dc:type rdf:resource="http://purl.org/dc/dcmitype/StillImage"/>
    <dc:date>2026-04-10T15:06:19.430159</dc:date>
    <dc:format>image/svg+xml</dc:format>
    <dc:creator>
     <cc:Agent>
      <dc:title>Matplotlib v3.10.8, https://matplotlib.org/</dc:title>
     </cc:Agent>
    </dc:creator>
   </cc:Work>
  </rdf:RDF>
 </metadata>
 <defs>
  <style type="text/css">*{stroke-linejoin: round; stroke-linecap: butt}</style>
 </defs>
 <g id="figure_1">
  <g id="patch_1">
   <path d="M 0 437.569531 
L 721.92875 437.569531 
L 721.92875 -0 
L 0 -0 
z
" style="fill: #fdf8f2"/>
  </g>
  <g id="axes_1">
   <g id="patch_2">
    <path d="M 73.15 371.453125 
L 534.725 371.453125 
L 534.725 48.853125 
L 73.15 48.853125 
L 73.15 371.453125 
z
" style="fill: none"/>
   </g>
   <g id="FillBetweenPolyCollection_1">
    <defs>
     <path id="me0a606e538" d="M 90.24537 -309.377461 
L 90.24537 -276.702702 
L 197.091435 -299.755811 
L 303.9375 -290.571951 
L 410.783565 -156.988854 
L 517.62963 -136.97387 
L 517.62963 -159.706753 
L 517.62963 -159.706753 
L 410.783565 -179.743371 
L 303.9375 -313.224366 
L 197.091435 -329.548703 
L 90.24537 -309.377461 
z
"/>
    </defs>
    <g clip-path="url(#p0afa5f7af2)">
     <use xlink:href="#me0a606e538" x="0" y="437.569531" style="fill: #5088c5; fill-opacity: 0.2"/>
    </g>
   </g>
   <g id="FillBetweenPolyCollection_2">
    <defs>
     <path id="m01a91e825d" d="M 90.24537 -280.124885 
L 90.24537 -259.793729 
L 197.091435 -274.053095 
L 303.9375 -303.782875 
L 410.783565 -304.718539 
L 517.62963 -318.397517 
L 517.62963 -342.690418 
L 517.62963 -342.690418 
L 410.783565 -321.620962 
L 303.9375 -323.694677 
L 197.091435 -300.821094 
L 90.24537 -280.124885 
z
"/>
    </defs>
    <g clip-path="url(#p0afa5f7af2)">
     <use xlink:href="#m01a91e825d" x="0" y="437.569531" style="fill: #f28360; fill-opacity: 0.2"/>
    </g>
   </g>
   <g id="FillBetweenPolyCollection_3">
    <defs>
     <path id="mfd1015ce60" d="M 90.24537 -358.023854 
L 90.24537 -334.088053 
L 197.091435 -355.130521 
L 303.9375 -261.583428 
L 410.783565 -214.242846 
L 517.62963 -178.488511 
L 517.62963 -234.291877 
L 517.62963 -234.291877 
L 410.783565 -262.346637 
L 303.9375 -293.455476 
L 197.091435 -373.857357 
L 90.24537 -358.023854 
z
"/>
    </defs>
    <g clip-path="url(#p0afa5f7af2)">
     <use xlink:href="#mfd1015ce60" x="0" y="437.569531" style="fill: #7a77ab; fill-opacity: 0.2"/>
    </g>
   </g>
   <g id="FillBetweenPolyCollection_4">
    <defs>
     <path id="m3f115c5f65" d="M 90.24537 -280.370485 
L 90.24537 -258.032728 
L 197.091435 -290.152566 
L 303.9375 -279.261702 
L 410.783565 -276.816739 
L 517.62963 -281.65298 
L 517.62963 -305.836536 
L 517.62963 -305.836536 
L 410.783565 -297.317475 
L 303.9375 -297.413466 
L 197.091435 -309.137659 
L 90.24537 -280.370485 
z
"/>
    </defs>
    <g clip-path="url(#p0afa5f7af2)">
     <use xlink:href="#m3f115c5f65" x="0" y="437.569531" style="fill: #f898ae; fill-opacity: 0.2"/>
    </g>
   </g>
   <g id="matplotlib.axis_1">
    <g id="xtick_1">
     <g id="line2d_1">
      <defs>
       <path id="mf7e1aa5a8f" d="M 0 0 
L 0 5 
" style="stroke: #000000; stroke-width: 0.75"/>
      </defs>
      <g>
       <use xlink:href="#mf7e1aa5a8f" x="90.24537" y="371.453125" style="stroke: #000000; stroke-width: 0.75"/>
      </g>
     </g>
     <g id="text_1">
      <text style="font-size: 15px; font-family: 'Atkinson Hyperlegible Next', sans-serif; text-anchor: middle" x="90.24537" y="392.072656" transform="rotate(-0 90.24537 392.072656)">1.0</text>
     </g>
    </g>
    <g id="xtick_2">
     <g id="line2d_2">
      <g>
       <use xlink:href="#mf7e1aa5a8f" x="143.668403" y="371.453125" style="stroke: #000000; stroke-width: 0.75"/>
      </g>
     </g>
     <g id="text_2">
      <text style="font-size: 15px; font-family: 'Atkinson Hyperlegible Next', sans-serif; text-anchor: middle" x="143.668403" y="392.072656" transform="rotate(-0 143.668403 392.072656)">1.5</text>
     </g>
    </g>
    <g id="xtick_3">
     <g id="line2d_3">
      <g>
       <use xlink:href="#mf7e1aa5a8f" x="197.091435" y="371.453125" style="stroke: #000000; stroke-width: 0.75"/>
      </g>
     </g>
     <g id="text_3">
      <text style="font-size: 15px; font-family: 'Atkinson Hyperlegible Next', sans-serif; text-anchor: middle" x="197.091435" y="392.072656" transform="rotate(-0 197.091435 392.072656)">2.0</text>
     </g>
    </g>
    <g id="xtick_4">
     <g id="line2d_4">
      <g>
       <use xlink:href="#mf7e1aa5a8f" x="250.514468" y="371.453125" style="stroke: #000000; stroke-width: 0.75"/>
      </g>
     </g>
     <g id="text_4">
      <text style="font-size: 15px; font-family: 'Atkinson Hyperlegible Next', sans-serif; text-anchor: middle" x="250.514468" y="392.072656" transform="rotate(-0 250.514468 392.072656)">2.5</text>
     </g>
    </g>
    <g id="xtick_5">
     <g id="line2d_5">
      <g>
       <use xlink:href="#mf7e1aa5a8f" x="303.9375" y="371.453125" style="stroke: #000000; stroke-width: 0.75"/>
      </g>
     </g>
     <g id="text_5">
      <text style="font-size: 15px; font-family: 'Atkinson Hyperlegible Next', sans-serif; text-anchor: middle" x="303.9375" y="392.072656" transform="rotate(-0 303.9375 392.072656)">3.0</text>
     </g>
    </g>
    <g id="xtick_6">
     <g id="line2d_6">
      <g>
       <use xlink:href="#mf7e1aa5a8f" x="357.360532" y="371.453125" style="stroke: #000000; stroke-width: 0.75"/>
      </g>
     </g>
     <g id="text_6">
      <text style="font-size: 15px; font-family: 'Atkinson Hyperlegible Next', sans-serif; text-anchor: middle" x="357.360532" y="392.072656" transform="rotate(-0 357.360532 392.072656)">3.5</text>
     </g>
    </g>
    <g id="xtick_7">
     <g id="line2d_7">
      <g>
       <use xlink:href="#mf7e1aa5a8f" x="410.783565" y="371.453125" style="stroke: #000000; stroke-width: 0.75"/>
      </g>
     </g>
     <g id="text_7">
      <text style="font-size: 15px; font-family: 'Atkinson Hyperlegible Next', sans-serif; text-anchor: middle" x="410.783565" y="392.072656" transform="rotate(-0 410.783565 392.072656)">4.0</text>
     </g>
    </g>
    <g id="xtick_8">
     <g id="line2d_8">
      <g>
       <use xlink:href="#mf7e1aa5a8f" x="464.206597" y="371.453125" style="stroke: #000000; stroke-width: 0.75"/>
      </g>
     </g>
     <g id="text_8">
      <text style="font-size: 15px; font-family: 'Atkinson Hyperlegible Next', sans-serif; text-anchor: middle" x="464.206597" y="392.072656" transform="rotate(-0 464.206597 392.072656)">4.5</text>
     </g>
    </g>
    <g id="xtick_9">
     <g id="line2d_9">
      <g>
       <use xlink:href="#mf7e1aa5a8f" x="517.62963" y="371.453125" style="stroke: #000000; stroke-width: 0.75"/>
      </g>
     </g>
     <g id="text_9">
      <text style="font-size: 15px; font-family: 'Atkinson Hyperlegible Next', sans-serif; text-anchor: middle" x="517.62963" y="392.072656" transform="rotate(-0 517.62963 392.072656)">5.0</text>
     </g>
    </g>
    <g id="text_10">
     <text style="font-weight: 500; font-size: 15px; font-family: 'Atkinson Hyperlegible Next', sans-serif; text-anchor: middle" x="303.9375" y="415.139063" transform="rotate(-0 303.9375 415.139063)">Volume (mL)</text>
    </g>
   </g>
   <g id="matplotlib.axis_2">
    <g id="ytick_1">
     <g id="line2d_10">
      <defs>
       <path id="mafa308f34e" d="M 0 0 
L -5 0 
" style="stroke: #000000; stroke-width: 0.75"/>
      </defs>
      <g>
       <use xlink:href="#mafa308f34e" x="73.15" y="335.858326" style="stroke: #000000; stroke-width: 0.75"/>
      </g>
     </g>
     <g id="text_11">
      <text style="font-size: 15px; font-family: 'Atkinson Hyperlegible Next', sans-serif; text-anchor: end" x="63.15" y="341.168091" transform="rotate(-0 63.15 341.168091)">32</text>
     </g>
    </g>
    <g id="ytick_2">
     <g id="line2d_11">
      <g>
       <use xlink:href="#mafa308f34e" x="73.15" y="290.343912" style="stroke: #000000; stroke-width: 0.75"/>
      </g>
     </g>
     <g id="text_12">
      <text style="font-size: 15px; font-family: 'Atkinson Hyperlegible Next', sans-serif; text-anchor: end" x="63.15" y="295.653678" transform="rotate(-0 63.15 295.653678)">34</text>
     </g>
    </g>
    <g id="ytick_3">
     <g id="line2d_12">
      <g>
       <use xlink:href="#mafa308f34e" x="73.15" y="244.829499" style="stroke: #000000; stroke-width: 0.75"/>
      </g>
     </g>
     <g id="text_13">
      <text style="font-size: 15px; font-family: 'Atkinson Hyperlegible Next', sans-serif; text-anchor: end" x="63.15" y="250.139265" transform="rotate(-0 63.15 250.139265)">36</text>
     </g>
    </g>
    <g id="ytick_4">
     <g id="line2d_13">
      <g>
       <use xlink:href="#mafa308f34e" x="73.15" y="199.315086" style="stroke: #000000; stroke-width: 0.75"/>
      </g>
     </g>
     <g id="text_14">
      <text style="font-size: 15px; font-family: 'Atkinson Hyperlegible Next', sans-serif; text-anchor: end" x="63.15" y="204.624851" transform="rotate(-0 63.15 204.624851)">38</text>
     </g>
    </g>
    <g id="ytick_5">
     <g id="line2d_14">
      <g>
       <use xlink:href="#mafa308f34e" x="73.15" y="153.800672" style="stroke: #000000; stroke-width: 0.75"/>
      </g>
     </g>
     <g id="text_15">
      <text style="font-size: 15px; font-family: 'Atkinson Hyperlegible Next', sans-serif; text-anchor: end" x="63.15" y="159.110438" transform="rotate(-0 63.15 159.110438)">40</text>
     </g>
    </g>
    <g id="ytick_6">
     <g id="line2d_15">
      <g>
       <use xlink:href="#mafa308f34e" x="73.15" y="108.286259" style="stroke: #000000; stroke-width: 0.75"/>
      </g>
     </g>
     <g id="text_16">
      <text style="font-size: 15px; font-family: 'Atkinson Hyperlegible Next', sans-serif; text-anchor: end" x="63.15" y="113.596025" transform="rotate(-0 63.15 113.596025)">42</text>
     </g>
    </g>
    <g id="ytick_7">
     <g id="line2d_16">
      <g>
       <use xlink:href="#mafa308f34e" x="73.15" y="62.771846" style="stroke: #000000; stroke-width: 0.75"/>
      </g>
     </g>
     <g id="text_17">
      <text style="font-size: 15px; font-family: 'Atkinson Hyperlegible Next', sans-serif; text-anchor: end" x="63.15" y="68.081611" transform="rotate(-0 63.15 68.081611)">44</text>
     </g>
    </g>
    <g id="text_18">
     <text style="font-weight: 500; font-size: 15px; font-family: 'Atkinson Hyperlegible Next', sans-serif; text-anchor: middle" x="31.789063" y="210.153125" transform="rotate(-90 31.789063 210.153125)">Area (μm²)</text>
    </g>
   </g>
   <g id="line2d_17">
    <path d="M 90.24537 144.52945 
L 197.091435 122.917274 
L 303.9375 135.671373 
L 410.783565 269.203419 
L 517.62963 289.22922 
" clip-path="url(#p0afa5f7af2)" style="fill: none; stroke: #5088c5; stroke-width: 2; stroke-linecap: round"/>
    <defs>
     <path id="m2fbe343f19" d="M 0 3 
C 0.795609 3 1.55874 2.683901 2.12132 2.12132 
C 2.683901 1.55874 3 0.795609 3 0 
C 3 -0.795609 2.683901 -1.55874 2.12132 -2.12132 
C 1.55874 -2.683901 0.795609 -3 0 -3 
C -0.795609 -3 -1.55874 -2.683901 -2.12132 -2.12132 
C -2.683901 -1.55874 -3 -0.795609 -3 0 
C -3 0.795609 -2.683901 1.55874 -2.12132 2.12132 
C -1.55874 2.683901 -0.795609 3 0 3 
z
"/>
    </defs>
    <g clip-path="url(#p0afa5f7af2)">
     <use xlink:href="#m2fbe343f19" x="90.24537" y="144.52945" style="fill: #5088c5"/>
     <use xlink:href="#m2fbe343f19" x="197.091435" y="122.917274" style="fill: #5088c5"/>
     <use xlink:href="#m2fbe343f19" x="303.9375" y="135.671373" style="fill: #5088c5"/>
     <use xlink:href="#m2fbe343f19" x="410.783565" y="269.203419" style="fill: #5088c5"/>
     <use xlink:href="#m2fbe343f19" x="517.62963" y="289.22922" style="fill: #5088c5"/>
    </g>
   </g>
   <g id="line2d_18">
    <path d="M 90.24537 167.610225 
L 197.091435 150.132437 
L 303.9375 123.830755 
L 410.783565 124.399781 
L 517.62963 107.025564 
" clip-path="url(#p0afa5f7af2)" style="fill: none; stroke: #f28360; stroke-width: 2; stroke-linecap: round"/>
    <defs>
     <path id="mb3cbc1c89a" d="M 0 3 
C 0.795609 3 1.55874 2.683901 2.12132 2.12132 
C 2.683901 1.55874 3 0.795609 3 0 
C 3 -0.795609 2.683901 -1.55874 2.12132 -2.12132 
C 1.55874 -2.683901 0.795609 -3 0 -3 
C -0.795609 -3 -1.55874 -2.683901 -2.12132 -2.12132 
C -2.683901 -1.55874 -3 -0.795609 -3 0 
C -3 0.795609 -2.683901 1.55874 -2.12132 2.12132 
C -1.55874 2.683901 -0.795609 3 0 3 
z
"/>
    </defs>
    <g clip-path="url(#p0afa5f7af2)">
     <use xlink:href="#mb3cbc1c89a" x="90.24537" y="167.610225" style="fill: #f28360"/>
     <use xlink:href="#mb3cbc1c89a" x="197.091435" y="150.132437" style="fill: #f28360"/>
     <use xlink:href="#mb3cbc1c89a" x="303.9375" y="123.830755" style="fill: #f28360"/>
     <use xlink:href="#mb3cbc1c89a" x="410.783565" y="124.399781" style="fill: #f28360"/>
     <use xlink:href="#mb3cbc1c89a" x="517.62963" y="107.025564" style="fill: #f28360"/>
    </g>
   </g>
   <g id="LineCollection_1">
    <path d="M 90.24537 359.504977 
L 90.24537 336.80666 
" clip-path="url(#p0afa5f7af2)" style="fill: none; stroke: #f7b846; stroke-width: 2"/>
   </g>
   <g id="line2d_19">
    <defs>
     <path id="m4649fd5add" d="M 4 0 
L -4 -0 
"/>
    </defs>
    <g clip-path="url(#p0afa5f7af2)">
     <use xlink:href="#m4649fd5add" x="90.24537" y="359.504977" style="fill: #f7b846"/>
    </g>
   </g>
   <g id="line2d_20">
    <g clip-path="url(#p0afa5f7af2)">
     <use xlink:href="#m4649fd5add" x="90.24537" y="336.80666" style="fill: #f7b846"/>
    </g>
   </g>
   <g id="LineCollection_2">
    <path d="M 90.24537 203.393092 
L 90.24537 60.801273 
" clip-path="url(#p0afa5f7af2)" style="fill: none; stroke: #97cd78; stroke-width: 2"/>
   </g>
   <g id="line2d_21">
    <defs>
     <path id="m7723d03244" d="M 4 0 
L -4 -0 
"/>
    </defs>
    <g clip-path="url(#p0afa5f7af2)">
     <use xlink:href="#m7723d03244" x="90.24537" y="203.393092" style="fill: #97cd78"/>
    </g>
   </g>
   <g id="line2d_22">
    <g clip-path="url(#p0afa5f7af2)">
     <use xlink:href="#m7723d03244" x="90.24537" y="60.801273" style="fill: #97cd78"/>
    </g>
   </g>
   <g id="line2d_23">
    <path d="M 90.24537 91.513578 
L 197.091435 73.075593 
L 303.9375 160.050079 
L 410.783565 199.27479 
L 517.62963 231.179337 
" clip-path="url(#p0afa5f7af2)" style="fill: none; stroke: #7a77ab; stroke-width: 2; stroke-linecap: round"/>
    <defs>
     <path id="mcc9c1eb0a2" d="M 0 3 
C 0.795609 3 1.55874 2.683901 2.12132 2.12132 
C 2.683901 1.55874 3 0.795609 3 0 
C 3 -0.795609 2.683901 -1.55874 2.12132 -2.12132 
C 1.55874 -2.683901 0.795609 -3 0 -3 
C -0.795609 -3 -1.55874 -2.683901 -2.12132 -2.12132 
C -2.683901 -1.55874 -3 -0.795609 -3 0 
C -3 0.795609 -2.683901 1.55874 -2.12132 2.12132 
C -1.55874 2.683901 -0.795609 3 0 3 
z
"/>
    </defs>
    <g clip-path="url(#p0afa5f7af2)">
     <use xlink:href="#mcc9c1eb0a2" x="90.24537" y="91.513578" style="fill: #7a77ab"/>
     <use xlink:href="#mcc9c1eb0a2" x="197.091435" y="73.075593" style="fill: #7a77ab"/>
     <use xlink:href="#mcc9c1eb0a2" x="303.9375" y="160.050079" style="fill: #7a77ab"/>
     <use xlink:href="#mcc9c1eb0a2" x="410.783565" y="199.27479" style="fill: #7a77ab"/>
     <use xlink:href="#mcc9c1eb0a2" x="517.62963" y="231.179337" style="fill: #7a77ab"/>
    </g>
   </g>
   <g id="line2d_24">
    <path d="M 90.24537 168.367925 
L 197.091435 137.924419 
L 303.9375 149.231947 
L 410.783565 150.502424 
L 517.62963 143.824773 
" clip-path="url(#p0afa5f7af2)" style="fill: none; stroke: #f898ae; stroke-width: 2; stroke-linecap: round"/>
    <defs>
     <path id="m21b5b0065d" d="M 0 3 
C 0.795609 3 1.55874 2.683901 2.12132 2.12132 
C 2.683901 1.55874 3 0.795609 3 0 
C 3 -0.795609 2.683901 -1.55874 2.12132 -2.12132 
C 1.55874 -2.683901 0.795609 -3 0 -3 
C -0.795609 -3 -1.55874 -2.683901 -2.12132 -2.12132 
C -2.683901 -1.55874 -3 -0.795609 -3 0 
C -3 0.795609 -2.683901 1.55874 -2.12132 2.12132 
C -1.55874 2.683901 -0.795609 3 0 3 
z
"/>
    </defs>
    <g clip-path="url(#p0afa5f7af2)">
     <use xlink:href="#m21b5b0065d" x="90.24537" y="168.367925" style="fill: #f898ae"/>
     <use xlink:href="#m21b5b0065d" x="197.091435" y="137.924419" style="fill: #f898ae"/>
     <use xlink:href="#m21b5b0065d" x="303.9375" y="149.231947" style="fill: #f898ae"/>
     <use xlink:href="#m21b5b0065d" x="410.783565" y="150.502424" style="fill: #f898ae"/>
     <use xlink:href="#m21b5b0065d" x="517.62963" y="143.824773" style="fill: #f898ae"/>
    </g>
   </g>
   <g id="line2d_25">
    <path d="M 90.24537 348.155818 
" clip-path="url(#p0afa5f7af2)" style="fill: none; stroke: #f7b846; stroke-width: 2; stroke-linecap: round"/>
    <defs>
     <path id="m21f865603e" d="M 0 3 
C 0.795609 3 1.55874 2.683901 2.12132 2.12132 
C 2.683901 1.55874 3 0.795609 3 0 
C 3 -0.795609 2.683901 -1.55874 2.12132 -2.12132 
C 1.55874 -2.683901 0.795609 -3 0 -3 
C -0.795609 -3 -1.55874 -2.683901 -2.12132 -2.12132 
C -2.683901 -1.55874 -3 -0.795609 -3 0 
C -3 0.795609 -2.683901 1.55874 -2.12132 2.12132 
C -1.55874 2.683901 -0.795609 3 0 3 
z
"/>
    </defs>
    <g clip-path="url(#p0afa5f7af2)">
     <use xlink:href="#m21f865603e" x="90.24537" y="348.155818" style="fill: #f7b846"/>
    </g>
   </g>
   <g id="line2d_26">
    <path d="M 90.24537 132.097182 
" clip-path="url(#p0afa5f7af2)" style="fill: none; stroke: #97cd78; stroke-width: 2; stroke-linecap: round"/>
    <defs>
     <path id="m9e25b1352e" d="M 0 3 
C 0.795609 3 1.55874 2.683901 2.12132 2.12132 
C 2.683901 1.55874 3 0.795609 3 0 
C 3 -0.795609 2.683901 -1.55874 2.12132 -2.12132 
C 1.55874 -2.683901 0.795609 -3 0 -3 
C -0.795609 -3 -1.55874 -2.683901 -2.12132 -2.12132 
C -2.683901 -1.55874 -3 -0.795609 -3 0 
C -3 0.795609 -2.683901 1.55874 -2.12132 2.12132 
C -1.55874 2.683901 -0.795609 3 0 3 
z
"/>
    </defs>
    <g clip-path="url(#p0afa5f7af2)">
     <use xlink:href="#m9e25b1352e" x="90.24537" y="132.097182" style="fill: #97cd78"/>
    </g>
   </g>
   <g id="patch_3">
    <path d="M 73.15 371.453125 
L 73.15 48.853125 
" style="fill: none; stroke: #000000; stroke-width: 0.75; stroke-linejoin: miter; stroke-linecap: square"/>
   </g>
   <g id="patch_4">
    <path d="M 73.15 371.453125 
L 534.725 371.453125 
" style="fill: none; stroke: #000000; stroke-width: 0.75; stroke-linejoin: miter; stroke-linecap: square"/>
   </g>
   <g id="text_19">
    <text style="font-weight: 500; font-size: 18px; font-family: 'Atkinson Hyperlegible Next', sans-serif; text-anchor: middle" x="303.9375" y="32.853125" transform="rotate(-0 303.9375 32.853125)">Mean cell area vs. volume by experiment and bead presence</text>
   </g>
   <g id="legend_1">
    <g id="line2d_27">
     <path d="M 557.80375 48.853125 
L 701.92875 48.853125 
" style="fill: none; stroke: #bab0a8; stroke-width: 1.5; stroke-linecap: round"/>
    </g>
    <g id="line2d_28">
     <path d="M 557.80375 62.728125 
L 565.30375 62.728125 
L 572.80375 62.728125 
" style="fill: none; stroke: #5088c5; stroke-width: 2; stroke-linecap: round"/>
     <g>
      <use xlink:href="#m2fbe343f19" x="565.30375" y="62.728125" style="fill: #5088c5"/>
     </g>
    </g>
    <g id="text_20">
     <text style="font-size: 15px; font-family: 'Atkinson Hyperlegible Next', sans-serif; text-anchor: start" x="578.80375" y="69.103125" transform="rotate(-0 578.80375 69.103125)">24-well, no bead</text>
    </g>
    <g id="line2d_29">
     <path d="M 557.80375 85.603125 
L 565.30375 85.603125 
L 572.80375 85.603125 
" style="fill: none; stroke: #f28360; stroke-width: 2; stroke-linecap: round"/>
     <g>
      <use xlink:href="#mb3cbc1c89a" x="565.30375" y="85.603125" style="fill: #f28360"/>
     </g>
    </g>
    <g id="text_21">
     <text style="font-size: 15px; font-family: 'Atkinson Hyperlegible Next', sans-serif; text-anchor: start" x="578.80375" y="91.978125" transform="rotate(-0 578.80375 91.978125)">24-well, bead</text>
    </g>
    <g id="line2d_30">
     <path d="M 557.80375 108.478125 
L 565.30375 108.478125 
L 572.80375 108.478125 
" style="fill: none; stroke: #7a77ab; stroke-width: 2; stroke-linecap: round"/>
     <g>
      <use xlink:href="#mcc9c1eb0a2" x="565.30375" y="108.478125" style="fill: #7a77ab"/>
     </g>
    </g>
    <g id="text_22">
     <text style="font-size: 15px; font-family: 'Atkinson Hyperlegible Next', sans-serif; text-anchor: start" x="578.80375" y="114.853125" transform="rotate(-0 578.80375 114.853125)">Test tube, no bead</text>
    </g>
    <g id="line2d_31">
     <path d="M 557.80375 131.353125 
L 565.30375 131.353125 
L 572.80375 131.353125 
" style="fill: none; stroke: #f898ae; stroke-width: 2; stroke-linecap: round"/>
     <g>
      <use xlink:href="#m21b5b0065d" x="565.30375" y="131.353125" style="fill: #f898ae"/>
     </g>
    </g>
    <g id="text_23">
     <text style="font-size: 15px; font-family: 'Atkinson Hyperlegible Next', sans-serif; text-anchor: start" x="578.80375" y="137.728125" transform="rotate(-0 578.80375 137.728125)">Test tube, bead</text>
    </g>
    <g id="LineCollection_3">
     <path d="M 565.30375 161.728125 
L 565.30375 146.728125 
" style="fill: none; stroke: #f7b846; stroke-width: 2"/>
    </g>
    <g id="line2d_32">
     <g>
      <use xlink:href="#m4649fd5add" x="565.30375" y="161.728125" style="fill: #f7b846"/>
     </g>
    </g>
    <g id="line2d_33">
     <g>
      <use xlink:href="#m4649fd5add" x="565.30375" y="146.728125" style="fill: #f7b846"/>
     </g>
    </g>
    <g id="line2d_34">
     <path d="M 557.80375 154.228125 
L 572.80375 154.228125 
" style="fill: none; stroke: #f7b846; stroke-width: 2; stroke-linecap: round"/>
    </g>
    <g id="line2d_35">
     <g>
      <use xlink:href="#m21f865603e" x="565.30375" y="154.228125" style="fill: #f7b846"/>
     </g>
    </g>
    <g id="text_24">
     <text style="font-size: 15px; font-family: 'Atkinson Hyperlegible Next', sans-serif; text-anchor: start" x="578.80375" y="160.603125" transform="rotate(-0 578.80375 160.603125)">96-well, no bead</text>
    </g>
    <g id="LineCollection_4">
     <path d="M 565.30375 184.603125 
L 565.30375 169.603125 
" style="fill: none; stroke: #97cd78; stroke-width: 2"/>
    </g>
    <g id="line2d_36">
     <g>
      <use xlink:href="#m7723d03244" x="565.30375" y="184.603125" style="fill: #97cd78"/>
     </g>
    </g>
    <g id="line2d_37">
     <g>
      <use xlink:href="#m7723d03244" x="565.30375" y="169.603125" style="fill: #97cd78"/>
     </g>
    </g>
    <g id="line2d_38">
     <path d="M 557.80375 177.103125 
L 572.80375 177.103125 
" style="fill: none; stroke: #97cd78; stroke-width: 2; stroke-linecap: round"/>
    </g>
    <g id="line2d_39">
     <g>
      <use xlink:href="#m9e25b1352e" x="565.30375" y="177.103125" style="fill: #97cd78"/>
     </g>
    </g>
    <g id="text_25">
     <text style="font-size: 15px; font-family: 'Atkinson Hyperlegible Next', sans-serif; text-anchor: start" x="578.80375" y="183.478125" transform="rotate(-0 578.80375 183.478125)">96-well, bead</text>
    </g>
   </g>
  </g>
 </g>
 <defs>
  <clipPath id="p0afa5f7af2">
   <rect x="73.15" y="48.853125" width="461.575" height="322.6"/>
  </clipPath>
 </defs>
</svg>
